<?xml version="1.0" encoding="UTF-8"?>
<svg version="1.1" xmlns="http://www.w3.org/2000/svg" width="225" height="225">
<path d="M0 0 C74.25 0 148.5 0 225 0 C225 74.25 225 148.5 225 225 C150.75 225 76.5 225 0 225 C0 150.75 0 76.5 0 0 Z " fill="#FEFEFE" transform="translate(0,0)"/>
<path d="M0 0 C4.0384057 -0.0744389 8.07654293 -0.12873729 12.11547852 -0.16479492 C13.48794517 -0.17983432 14.86036414 -0.20027133 16.23266602 -0.22631836 C18.21088656 -0.26291221 20.18946514 -0.27816698 22.16796875 -0.29296875 C23.35672607 -0.3086792 24.5454834 -0.32438965 25.77026367 -0.34057617 C30.08920197 0.11485651 32.42275683 1.7868023 35.78759766 4.375 C37.46795291 6.62720391 37.3877908 8.20955172 37.3984375 11 C37.40423828 12.4540625 37.40423828 12.4540625 37.41015625 13.9375 C37.39855469 14.948125 37.38695312 15.95875 37.375 17 C37.38660156 18.010625 37.39820313 19.02125 37.41015625 20.0625 C37.40628906 21.031875 37.40242188 22.00125 37.3984375 23 C37.39505371 23.886875 37.39166992 24.77375 37.38818359 25.6875 C37 28 37 28 35.93798828 29.78759766 C32.97496103 31.64126273 29.98188592 31.42795958 26.59375 31.3984375 C25.87264038 31.40130768 25.15153076 31.40417786 24.40856934 31.40713501 C22.88549005 31.40917452 21.3623845 31.40365247 19.83935547 31.39111328 C17.50819322 31.37505643 15.17876458 31.3909641 12.84765625 31.41015625 C11.36718367 31.4081738 9.88671218 31.40433007 8.40625 31.3984375 C7.7093103 31.40451019 7.01237061 31.41058289 6.29431152 31.4168396 C3.4358182 31.37530253 1.46191291 31.31539873 -0.93579102 29.67822266 C-2.69879204 26.89802788 -2.43412848 24.23666104 -2.4375 21 C-2.45683594 19.7625 -2.47617188 18.525 -2.49609375 17.25 C-2 14 -2 14 -0.2668457 12.32885742 C2.28952575 10.83027586 3.82455745 10.58254624 6.765625 10.48828125 C8.09980469 10.43510742 8.09980469 10.43510742 9.4609375 10.38085938 C10.38132813 10.35830078 11.30171875 10.33574219 12.25 10.3125 C13.18585938 10.27833984 14.12171875 10.24417969 15.0859375 10.20898438 C17.39050533 10.12667838 19.69470119 10.0574737 22 10 C20.38219843 8.38219843 18.54364482 8.77727853 16.30859375 8.68359375 C15.36435547 8.64169922 14.42011719 8.59980469 13.44726562 8.55664062 C12.45404297 8.51732422 11.46082031 8.47800781 10.4375 8.4375 C9.44041016 8.39431641 8.44332031 8.35113281 7.41601562 8.30664062 C4.9441585 8.20019702 2.4721969 8.09818072 0 8 C0 5.36 0 2.72 0 0 Z " fill="#ED1E26" transform="translate(177,102)"/>
<path d="M0 0 C4.02009457 -0.07455949 8.03991733 -0.12879358 12.06054688 -0.16479492 C13.42617816 -0.17981428 14.79176176 -0.20023608 16.15722656 -0.22631836 C18.12803905 -0.26300137 20.09921408 -0.27818551 22.0703125 -0.29296875 C23.25383301 -0.3086792 24.43735352 -0.32438965 25.65673828 -0.34057617 C29.43014341 0.04381846 31.78788669 1.00823338 35 3 C37.98175151 7.47262727 37.32927462 11.739478 37.3125 17 C37.32861328 18.010625 37.34472656 19.02125 37.36132812 20.0625 C37.36197266 21.031875 37.36261719 22.00125 37.36328125 23 C37.36626221 23.886875 37.36924316 24.77375 37.37231445 25.6875 C37 28 37 28 35.94018555 29.78759766 C32.97552549 31.64018377 29.9828504 31.42796798 26.59375 31.3984375 C25.87264038 31.40130768 25.15153076 31.40417786 24.40856934 31.40713501 C22.88549005 31.40917452 21.3623845 31.40365247 19.83935547 31.39111328 C17.50819322 31.37505643 15.17876458 31.3909641 12.84765625 31.41015625 C11.36718367 31.4081738 9.88671218 31.40433007 8.40625 31.3984375 C7.7093103 31.40451019 7.01237061 31.41058289 6.29431152 31.4168396 C3.4358182 31.37530253 1.46191291 31.31539873 -0.93579102 29.67822266 C-2.69879204 26.89802788 -2.43412848 24.23666104 -2.4375 21 C-2.45683594 19.7625 -2.47617187 18.525 -2.49609375 17.25 C-2 14 -2 14 -0.28051758 12.31518555 C2.39238188 10.77371147 3.91976997 10.6509714 6.984375 10.70703125 C7.91894531 10.71669922 8.85351562 10.72636719 9.81640625 10.73632812 C10.78449219 10.76146484 11.75257812 10.78660156 12.75 10.8125 C14.22533203 10.83280273 14.22533203 10.83280273 15.73046875 10.85351562 C18.15420415 10.88881274 20.57682145 10.93811946 23 11 C23 10.34 23 9.68 23 9 C11.615 8.505 11.615 8.505 0 8 C0 5.36 0 2.72 0 0 Z " fill="#ED1E27" transform="translate(56,102)"/>
<path d="M0 0 C3.96 0 7.92 0 12 0 C12.33 6.27 12.66 12.54 13 19 C14.03125 17.68 15.0625 16.36 16.125 15 C19.02891941 12.02269634 20.48067981 11.07561836 24.6484375 10.46875 C28.12953078 10.49699416 31.53721088 10.64983031 35 11 C31.49102731 15.18423892 27.91939465 19.19588166 24 23 C26.02425172 27.51563844 29.02640248 31.39873229 31.8984375 35.3984375 C35 39.78896104 35 39.78896104 35 42 C30.5231372 42.60589121 26.4502744 42.8797054 22 42 C18.8258331 39.08181431 16.89133905 35.85145407 15 32 C14.01 32.495 14.01 32.495 13 33 C12.53348793 35.12576782 12.53348793 35.12576782 12.375 37.5625 C12.25125 39.026875 12.1275 40.49125 12 42 C8.04 42 4.08 42 0 42 C0 28.14 0 14.28 0 0 Z " fill="#030303" transform="translate(98,91)"/>
<path d="M0 0 C0.74958984 0.00451172 1.49917969 0.00902344 2.27148438 0.01367188 C4.11852383 0.02543646 5.96552213 0.04337135 7.8125 0.0625 C7.8125 2.7025 7.8125 5.3425 7.8125 8.0625 C4.1825 8.3925 0.5525 8.7225 -3.1875 9.0625 C-3.1875 9.7225 -3.1875 10.3825 -3.1875 11.0625 C0.4425 11.0625 4.0725 11.0625 7.8125 11.0625 C7.8125 13.7025 7.8125 16.3425 7.8125 19.0625 C4.1825 19.0625 0.5525 19.0625 -3.1875 19.0625 C-3.1875 26.6525 -3.1875 34.2425 -3.1875 42.0625 C-7.8075 42.0625 -12.4275 42.0625 -17.1875 42.0625 C-17.1875 34.4725 -17.1875 26.8825 -17.1875 19.0625 C-18.8375 19.0625 -20.4875 19.0625 -22.1875 19.0625 C-22.1875 16.4225 -22.1875 13.7825 -22.1875 11.0625 C-20.5375 11.0625 -18.8875 11.0625 -17.1875 11.0625 C-17.125625 10.155 -17.06375 9.2475 -17 8.3125 C-15.99076419 4.27555677 -14.630617 3.27593236 -11.1875 1.0625 C-7.42449626 -0.19183458 -3.91539091 -0.04445422 0 0 Z " fill="#040404" transform="translate(162.1875,90.9375)"/>
<path d="M0 0 C11.22 0 22.44 0 34 0 C34 0.33 34 0.66 34 1 C18.655 1.495 18.655 1.495 3 2 C9.93 2.495 9.93 2.495 17 3 C17 4.65 17 6.3 17 8 C17.33 8.99 17.66 9.98 18 11 C16.02 11 14.04 11 12 11 C11.773125 11.5775 11.54625 12.155 11.3125 12.75 C9.67083893 15.56427613 7.56440947 17.02737733 5 19 C4.67 19.66 4.34 20.32 4 21 C5.31287621 19.85459775 6.62529021 18.70866567 7.9375 17.5625 C8.66839844 16.92441406 9.39929688 16.28632812 10.15234375 15.62890625 C11.12139353 14.77458541 12.08651175 13.91348825 13 13 C14.99958364 12.95919217 17.00045254 12.95745644 19 13 C18.01 13.33 17.02 13.66 16 14 C23.57824343 22.08496498 23.57824343 22.08496498 34 25 C34 27.31 34 29.62 34 32 C22.78 32 11.56 32 0 32 C0 21.44 0 10.88 0 0 Z " fill="#ED1D25" transform="translate(11,102)"/>
<path d="M0 0 C11.22 0 22.44 0 34 0 C34 0.33 34 0.66 34 1 C18.655 1.495 18.655 1.495 3 2 C9.93 2.495 9.93 2.495 17 3 C17 4.65 17 6.3 17 8 C17.33 8.99 17.66 9.98 18 11 C16.02 11 14.04 11 12 11 C11.773125 11.5775 11.54625 12.155 11.3125 12.75 C9.64018419 15.6168271 7.72780269 17.13711036 5 19 C4.01 19 3.02 19 2 19 C1.67 22.96 1.34 26.92 1 31 C11.89 31 22.78 31 34 31 C34 31.33 34 31.66 34 32 C22.78 32 11.56 32 0 32 C0 21.44 0 10.88 0 0 Z " fill="#EF4146" transform="translate(11,102)"/>
<path d="M0 0 C4.62 0 9.24 0 14 0 C14.78769545 5.6889116 15.07931689 10.36356737 14 16 C9.78153434 16.36865493 7.56876754 16.34945768 3.91015625 14.1015625 C2.97042969 13.28429687 2.03070313 12.46703125 1.0625 11.625 C0.10472656 10.81289062 -0.85304688 10.00078125 -1.83984375 9.1640625 C-4 7 -4 7 -4 5 C-7.34938173 5.57272978 -8.86220413 6.5568386 -11.125 9.0625 C-12.6328125 10.72265625 -12.6328125 10.72265625 -14 12 C-14.66 12 -15.32 12 -16 12 C-14.50172989 8.18622154 -12.23512607 6.42634455 -9 4 C-8.34 3.34 -7.68 2.68 -7 2 C-3.875 1.875 -3.875 1.875 -1 2 C-0.67 1.34 -0.34 0.68 0 0 Z " fill="#F9BCBE" transform="translate(31,111)"/>
<path d="M0 0 C10.56 0 21.12 0 32 0 C32 1.32 32 2.64 32 4 C26.72 4 21.44 4 16 4 C15.67 4.99 15.34 5.98 15 7 C15 6.34 15 5.68 15 5 C11.37 5 7.74 5 4 5 C4 4.67 4 4.34 4 4 C7.63 4 11.26 4 15 4 C15 3.34 15 2.68 15 2 C10.38 2 5.76 2 1 2 C0.67 1.34 0.34 0.68 0 0 Z " fill="#F8ACAF" transform="translate(13,103)"/>
<path d="M0 0 C4.29 0 8.58 0 13 0 C14 4 14 4 14 6 C10.04 6 6.08 6 2 6 C1.34 4.02 0.68 2.04 0 0 Z " fill="#F68C8E" transform="translate(32,114)"/>
<path d="M0 0 C2.97 0 5.94 0 9 0 C9 1.98 9 3.96 9 6 C2.375 6.25 2.375 6.25 -1 4 C-0.67 2.68 -0.34 1.36 0 0 Z " fill="#F69899" transform="translate(36,121)"/>
<path d="M0 0 C3.63 0 7.26 0 11 0 C11 1.32 11 2.64 11 4 C7.04 4 3.08 4 -1 4 C-0.67 2.68 -0.34 1.36 0 0 Z " fill="#FCE3E4" transform="translate(189,121)"/>
<path d="M0 0 C3.63 0 7.26 0 11 0 C11 1.32 11 2.64 11 4 C7.37 4 3.74 4 0 4 C0 2.68 0 1.36 0 0 Z " fill="#FCE5E6" transform="translate(68,121)"/>
<path d="M0 0 C1.22589844 0.01353516 1.22589844 0.01353516 2.4765625 0.02734375 C3.41628906 0.04474609 3.41628906 0.04474609 4.375 0.0625 C4.375 1.0525 4.375 2.0425 4.375 3.0625 C0.745 3.0625 -2.885 3.0625 -6.625 3.0625 C-6.625 2.4025 -6.625 1.7425 -6.625 1.0625 C-4.21954362 -0.14022819 -2.67503047 -0.03821472 0 0 Z " fill="#D0D0D0" transform="translate(165.625,98.9375)"/>
<path d="M0 0 C2.31 0.33 4.62 0.66 7 1 C7 1.33 7 1.66 7 2 C5.96875 2.20625 4.9375 2.4125 3.875 2.625 C-0.66635322 3.8777871 -2.83714029 6.61647566 -6 10 C-6.66 10 -7.32 10 -8 10 C-6.50104329 6.18447383 -4.2013144 4.46254954 -1 2 C-0.67 1.34 -0.34 0.68 0 0 Z " fill="#F8B0B2" transform="translate(23,113)"/>
</svg>
