<?xml version="1.0" standalone="no"?>
<!DOCTYPE svg PUBLIC "-//W3C//DTD SVG 20010904//EN"
 "http://www.w3.org/TR/2001/REC-SVG-20010904/DTD/svg10.dtd">
<svg version="1.0" xmlns="http://www.w3.org/2000/svg"
 width="240.000000pt" height="240.000000pt" viewBox="0 0 240.000000 240.000000"
 preserveAspectRatio="xMidYMid meet">

<g transform="translate(0.000000,240.000000) scale(0.100000,-0.100000)"
fill="#000000" stroke="none">
<path d="M822 1677 c2 -48 1 -87 -2 -87 -3 0 -30 25 -60 55 -30 30 -58 55 -62
55 -4 0 -8 -132 -8 -294 l0 -294 90 -82 90 -82 0 266 0 267 45 48 c136 145
379 157 525 25 l42 -38 -32 -28 -33 -27 -38 32 c-197 169 -515 -1 -448 -240
19 -69 97 -146 168 -167 63 -19 135 -21 179 -5 28 9 35 7 67 -16 19 -15 35
-30 35 -34 0 -10 -88 -39 -140 -46 -88 -13 -207 21 -287 82 l-33 24 0 -30 c0
-28 6 -33 78 -68 69 -33 87 -38 173 -41 106 -5 175 10 242 51 l39 24 -65 56
-64 57 -36 -15 c-50 -21 -143 -19 -192 4 -83 38 -145 140 -129 214 9 42 37 98
61 119 88 80 261 74 338 -12 l19 -21 -64 -60 c-36 -33 -80 -71 -97 -85 l-33
-26 -72 66 c-69 63 -73 65 -82 45 -9 -18 -2 -28 49 -75 33 -30 72 -63 86 -74
l26 -19 152 140 c83 76 155 139 159 139 4 0 7 -12 8 -27 0 -16 1 -135 2 -267
l2 -238 43 37 c23 21 64 58 90 83 l49 45 -7 299 -8 300 -61 -61 c-34 -34 -65
-61 -69 -61 -4 0 -7 36 -7 80 0 44 -3 80 -6 80 -3 0 -35 -27 -71 -59 l-64 -60
-67 26 c-60 22 -78 24 -172 21 -80 -4 -117 -10 -154 -27 l-50 -22 -45 43 c-25
24 -59 55 -74 68 l-29 25 4 -88z m86 -94 c-32 -34 -38 -29 -38 29 l0 52 30
-29 30 -29 -22 -23z m602 20 l0 -58 -32 33 -33 32 25 24 c14 14 28 25 33 25 4
1 7 -25 7 -56z m-712 -47 l32 -30 0 -239 c0 -133 -4 -237 -9 -235 -5 2 -27 20
-50 40 l-41 38 0 241 c0 269 -6 253 68 185z m852 -171 c0 -118 3 -222 7 -231
4 -10 -10 -31 -38 -60 -24 -24 -47 -44 -51 -44 -4 0 -8 110 -8 244 l0 245 37
30 c21 17 41 31 45 31 3 0 7 -97 8 -215z"/>
<path d="M1226 1461 l-29 -30 -32 25 c-26 20 -34 22 -43 11 -9 -10 -3 -22 28
-52 l39 -38 56 48 c42 35 53 50 43 56 -22 14 -33 10 -62 -20z"/>
<path d="M1393 818 c-46 -23 -49 -103 -4 -127 29 -16 71 -14 71 3 0 9 -7 12
-17 10 -27 -7 -55 19 -55 50 0 34 13 49 47 49 15 0 24 4 22 11 -5 15 -37 17
-64 4z"/>
<path d="M666 798 c-9 -35 -7 -118 3 -118 12 0 21 25 22 63 0 31 1 31 17 -13
10 -25 22 -45 27 -45 6 0 18 23 27 50 14 44 17 46 17 20 3 -95 31 -99 31 -4 0
67 -1 70 -22 67 -15 -2 -26 -15 -37 -48 l-15 -45 -15 48 c-16 51 -44 64 -55
25z"/>
<path d="M840 750 l0 -70 45 0 c49 0 62 17 18 22 -39 4 -39 42 0 46 33 4 26
22 -9 22 -15 0 -24 6 -24 15 0 10 10 15 30 15 17 0 30 5 30 10 0 6 -20 10 -45
10 l-45 0 0 -70z"/>
<path d="M940 810 c0 -5 9 -10 20 -10 18 0 20 -7 20 -60 0 -47 3 -60 15 -60
12 0 15 13 15 60 0 53 2 60 20 60 11 0 20 5 20 10 0 6 -25 10 -55 10 -30 0
-55 -4 -55 -10z"/>
<path d="M1086 763 c-10 -32 -21 -64 -23 -70 -3 -7 2 -13 10 -13 9 0 19 9 22
20 4 12 15 20 30 20 14 0 25 -7 28 -20 3 -11 12 -20 20 -20 12 0 11 12 -6 70
-18 58 -25 70 -42 70 -17 0 -25 -11 -39 -57z m53 -15 c1 -5 -6 -8 -14 -8 -16
0 -19 9 -8 36 6 16 7 16 14 -2 4 -10 8 -22 8 -26z"/>
<path d="M1210 750 l0 -70 45 0 c25 0 45 5 45 10 0 6 -13 10 -30 10 l-30 0 0
60 c0 47 -3 60 -15 60 -12 0 -15 -14 -15 -70z"/>
<path d="M1490 750 c0 -56 3 -70 15 -70 12 0 15 14 15 70 0 56 -3 70 -15 70
-12 0 -15 -14 -15 -70z"/>
<path d="M1540 810 c0 -5 9 -10 20 -10 18 0 20 -7 20 -60 0 -33 4 -60 10 -60
6 0 10 27 10 60 0 53 2 60 20 60 11 0 20 5 20 10 0 6 -22 10 -50 10 -27 0 -50
-4 -50 -10z"/>
<path d="M1660 815 c0 -3 9 -23 20 -45 11 -22 20 -51 20 -65 0 -41 24 -24 30
21 3 21 14 51 24 67 16 24 17 27 2 27 -9 0 -22 -11 -28 -25 -6 -14 -15 -25
-19 -25 -4 0 -10 11 -13 25 -4 14 -13 25 -21 25 -8 0 -15 -2 -15 -5z"/>
</g>
</svg>
